<?xml version="1.0" encoding="utf-8"?>
<!-- Generator: Adobe Illustrator 18.0.0, SVG Export Plug-In . SVG Version: 6.00 Build 0)  -->
<!DOCTYPE svg PUBLIC "-//W3C//DTD SVG 1.1//EN" "http://www.w3.org/Graphics/SVG/1.1/DTD/svg11.dtd">
<svg version="1.1" id="Layer_1" xmlns="http://www.w3.org/2000/svg" xmlns:xlink="http://www.w3.org/1999/xlink" x="0px" y="0px"
	 viewBox="0 0 311 211" enable-background="new 0 0 311 211" xml:space="preserve">
<rect y="0" fill-rule="evenodd" clip-rule="evenodd" fill="#FFFFFF" width="311" height="211"/>
<g>
	<path fill-rule="evenodd" clip-rule="evenodd" fill="#008728" d="M278.8,149.7c0,2.2-0.3,3.7-1.8,3.7c-1.5,0-1.8-1.5-1.8-3.9
		c0-2.8,0.4-3.8,1.6-3.8C278.5,145.7,278.8,147.2,278.8,149.7z M278.8,154.8h2v-13.8h-2.1v4.6h0c-0.4-0.9-1.2-1.5-2.4-1.5
		c-1.6,0-3.2,0.7-3.2,5.3c0,3.6,1,5.6,3.4,5.6c1.5,0,2-0.9,2.3-1.5h0V154.8z M269.4,151c0,1.5-0.6,2.5-1.9,2.5
		c-0.9,0-1.3-0.7-1.3-1.6c0-0.8,0.2-1.4,0.9-1.7c0.6-0.3,1.8-0.6,2.3-1V151z M271.4,146.6c0-1.8-1.5-2.6-3.3-2.6
		c-2.8,0-3.7,1.2-3.7,3.4h2c0-1,0.2-2,1.6-2c1.1,0,1.4,0.6,1.4,1.5c0,0.9-0.5,1.1-1.2,1.3l-1.6,0.4c-1.4,0.5-2.4,0.9-2.4,3.3
		c0,2,1.1,2.9,2.7,2.9c1.2,0,2-0.5,2.6-1.5h0c0.1,1,0.8,1.4,1.8,1.4c0.4,0,0.8-0.1,1-0.2v-1.4c-0.1,0-0.2,0.1-0.3,0.1
		c-0.3,0-0.5-0.3-0.5-0.7V146.6z M260.5,149.7c0,2.2-0.3,3.7-1.8,3.7c-1.5,0-1.8-1.5-1.8-3.9c0-2.8,0.4-3.8,1.6-3.8
		C260.2,145.7,260.5,147.2,260.5,149.7z M260.5,154.8h2v-13.8h-2.1v4.6h0c-0.4-0.9-1.2-1.5-2.4-1.5c-1.6,0-3.2,0.7-3.2,5.3
		c0,3.6,1,5.6,3.4,5.6c1.5,0,2-0.9,2.3-1.5h0V154.8z M250.9,142.9h2.1v-2.1h-2.1V142.9z M250.9,154.8h2.1v-10.4h-2.1V154.8z
		 M244.7,154.8h2.1v-6.2c0-1.9,1.1-2.4,2.1-2.4c0.4,0,0.7,0.1,0.9,0.1v-2.1c-0.1,0-0.3-0.1-0.5-0.1c-1.2,0-2,0.7-2.4,1.9h0v-1.6
		h-2.1V154.8z M240.6,151c0,1.5-0.6,2.5-1.9,2.5c-0.9,0-1.3-0.7-1.3-1.6c0-0.8,0.2-1.4,0.9-1.7c0.6-0.3,1.8-0.6,2.3-1V151z
		 M242.6,146.6c0-1.8-1.5-2.6-3.3-2.6c-2.8,0-3.7,1.2-3.7,3.4h2c0-1,0.2-2,1.6-2c1.1,0,1.4,0.6,1.4,1.5c0,0.9-0.5,1.1-1.2,1.3
		l-1.6,0.4c-1.4,0.5-2.4,0.9-2.4,3.3c0,2,1.1,2.9,2.7,2.9c1.2,0,2-0.5,2.6-1.5h0c0.1,1,0.8,1.4,1.8,1.4c0.4,0,0.8-0.1,1-0.2v-1.4
		c-0.1,0-0.2,0.1-0.3,0.1c-0.3,0-0.5-0.3-0.5-0.7V146.6z M231.7,149.7c0,2.2-0.3,3.7-1.8,3.7c-1.5,0-1.8-1.5-1.8-3.9
		c0-2.8,0.4-3.8,1.6-3.8C231.4,145.7,231.7,147.2,231.7,149.7z M231.7,154.8h2v-13.8h-2.1v4.6h0c-0.4-0.9-1.2-1.5-2.4-1.5
		c-1.6,0-3.2,0.7-3.2,5.3c0,3.6,1,5.6,3.4,5.6c1.5,0,2-0.9,2.3-1.5h0V154.8z M222.1,142.9h2.1v-2.1h-2.1V142.9z M222.1,154.8h2.1
		v-10.4h-2.1V154.8z M217.8,154.8h2.1v-13.8h-2.1V154.8z M210.4,149.6c0-2.3,0.3-3.9,1.8-3.9c1.5,0,1.8,1.6,1.8,3.9
		c0,2.7-0.3,3.9-1.8,3.9C210.7,153.5,210.4,152.2,210.4,149.6z M208.3,149.6c0,3.2,1,5.5,3.9,5.5c2.9,0,3.9-2.2,3.9-5.5
		c0-3.2-0.9-5.5-3.9-5.5C209.2,144.1,208.3,146.3,208.3,149.6z M198.3,150.5v0.3c0,1.9,0.8,4.2,4.2,4.2c2.8,0,4.6-1.2,4.6-4.2
		c0-1.9-0.8-3-2.8-3.7l-1.5-0.5c-1.5-0.6-2.1-1.2-2.1-2.3c0-1.5,0.9-2,1.9-2c1.4,0,1.9,0.7,1.9,2v0.3h2.2v-0.3
		c0-1.4-0.4-3.6-3.9-3.6c-2.6,0-4.3,1.4-4.3,3.9c0,2,0.9,3,2.9,3.8l1.5,0.5c1.2,0.4,2,1,2,2.5c0,1-0.7,2-2.1,2
		c-1.5,0-2.3-0.9-2.3-2.5v-0.3H198.3z M186.8,148.4v-0.2c0-1.4,0.4-2.7,1.8-2.7c1.2,0,1.6,1,1.6,2.3v0.6H186.8z M192.2,149.8v-1.1
		c0-2.9-0.8-4.6-3.7-4.6c-3.3,0-3.9,2.9-3.9,5.6c0,4.8,2.1,5.3,3.8,5.3c2.3,0,3.7-1.4,3.7-3.8h-2c0,0.6-0.2,2.3-1.7,2.3
		c-1.6,0-1.8-1.8-1.8-3.2v-0.6H192.2z M180.9,149.7c0,2.2-0.3,3.7-1.8,3.7c-1.5,0-1.8-1.5-1.8-3.9c0-2.8,0.4-3.8,1.6-3.8
		C180.7,145.7,180.9,147.2,180.9,149.7z M180.9,154.8h2v-13.8h-2.1v4.6h0c-0.4-0.9-1.2-1.5-2.4-1.5c-1.6,0-3.2,0.7-3.2,5.3
		c0,3.6,1,5.6,3.4,5.6c1.5,0,2-0.9,2.3-1.5h0V154.8z M164.6,143h1.4l2.1-2.8h-2.3L164.6,143z M163.8,148.4v-0.2
		c0-1.4,0.4-2.7,1.8-2.7c1.2,0,1.6,1,1.6,2.3v0.6H163.8z M169.2,149.8v-1.1c0-2.9-0.8-4.6-3.7-4.6c-3.3,0-3.9,2.9-3.9,5.6
		c0,4.8,2.1,5.3,3.8,5.3c2.3,0,3.7-1.4,3.7-3.8h-2c0,0.6-0.2,2.3-1.7,2.3c-1.6,0-1.8-1.8-1.8-3.2v-0.6H169.2z M155.6,145.9h1.4v6.5
		c0,2.1,0.7,2.5,2.1,2.5c0.7,0,1.2-0.1,1.7-0.2v-1.6c-0.2,0-0.4,0.1-0.8,0.1c-0.7,0-1-0.3-1-1.1v-6.2h1.7v-1.6h-1.7v-3H157v3h-1.4
		V145.9z M152.3,142.9h2.1v-2.1h-2.1V142.9z M152.3,154.8h2.1v-10.4h-2.1V154.8z M137.9,154.8h2.1v-7c0-1.4,0.8-2,1.7-2
		c0.9,0,1.3,0.5,1.3,1.9v7.2h2.1v-7c0-1.4,0.8-2,1.7-2c0.9,0,1.3,0.5,1.3,1.9v7.2h2.1v-7.9c0-2-1.1-2.8-2.5-2.8
		c-1.3,0-2,0.6-2.6,1.6c-0.3-0.9-0.9-1.6-2.4-1.6c-1,0-2,0.6-2.5,1.5h-0.1v-1.2h-2V154.8z M130.5,149.6c0-2.3,0.3-3.9,1.8-3.9
		c1.5,0,1.8,1.6,1.8,3.9c0,2.7-0.3,3.9-1.8,3.9C130.8,153.5,130.5,152.2,130.5,149.6z M128.4,149.6c0,3.2,1,5.5,3.9,5.5
		c2.9,0,3.9-2.2,3.9-5.5c0-3.2-0.9-5.5-3.9-5.5C129.3,144.1,128.4,146.3,128.4,149.6z M125.2,149.8v0.2c0,1.3-0.2,3.3-2.1,3.3
		c-1.6,0-2.4-1.1-2.4-5.6c0-4.5,0.7-5.5,2.4-5.5c1.6-0.1,2,1.4,2,2.7v0.2h2.2V145c0-1.4-0.2-4.3-4.2-4.3c-3.5,0-4.6,2.2-4.6,7.2
		c0,4.9,1.1,7.2,4.6,7.2c3.3,0,4.3-2.4,4.3-4.9v-0.3H125.2z M104.7,154.8h2.1v-7c0-1.4,0.8-2,1.7-2c1.1,0,1.5,0.5,1.5,1.9v7.2h2.1
		v-7.9c0-2.1-1-2.8-2.6-2.8c-1.2,0-2.2,0.6-2.7,1.5h-0.1v-1.2h-2V154.8z M98.2,143h1.4l2.1-2.8h-2.3L98.2,143z M97.4,149.6
		c0-2.3,0.3-3.9,1.8-3.9c1.5,0,1.8,1.6,1.8,3.9c0,2.7-0.3,3.9-1.8,3.9C97.7,153.5,97.4,152.2,97.4,149.6z M95.3,149.6
		c0,3.2,1,5.5,3.9,5.5c2.9,0,3.9-2.2,3.9-5.5c0-3.2-0.9-5.5-3.9-5.5C96.2,144.1,95.3,146.3,95.3,149.6z M91.5,142.9h2.1v-2.1h-2.1
		V142.9z M91.5,154.8h2.1v-10.4h-2.1V154.8z M87.9,151c0,1.6-0.4,2.5-1.6,2.5c-1.5,0-1.8-1.6-1.8-3.9c0-2.3,0.3-3.9,1.8-3.9
		c1.2,0,1.5,1.2,1.5,2.2h2.1c0-1.3-0.5-3.8-3.6-3.7c-3,0-3.9,2.2-3.9,5.5c0,3.2,0.9,5.5,3.9,5.5c2.6,0,3.4-1.6,3.6-4.1H87.9z
		 M78.7,151c0,1.5-0.6,2.5-1.9,2.5c-0.9,0-1.3-0.7-1.3-1.6c0-0.8,0.2-1.4,0.8-1.7c0.6-0.3,1.8-0.6,2.3-1V151z M80.7,146.6
		c0-1.8-1.5-2.6-3.3-2.6c-2.8,0-3.7,1.2-3.7,3.4h2c0-1,0.2-2,1.6-2c1.1,0,1.4,0.6,1.4,1.5c0,0.9-0.5,1.1-1.2,1.3l-1.6,0.4
		c-1.4,0.5-2.4,0.9-2.4,3.3c0,2,1,2.9,2.7,2.9c1.2,0,2-0.5,2.6-1.5h0c0.1,1,0.8,1.4,1.8,1.4c0.4,0,0.8-0.1,1-0.2v-1.4
		c-0.1,0-0.2,0.1-0.3,0.1c-0.3,0-0.5-0.3-0.5-0.7V146.6z M69.8,149.7c0,2.2-0.3,3.7-1.8,3.7c-1.5,0-1.8-1.5-1.8-3.9
		c0-2.8,0.4-3.8,1.6-3.8C69.5,145.7,69.8,147.2,69.8,149.7z M69.8,154.8h2v-13.8h-2.1v4.6h0c-0.4-0.9-1.2-1.5-2.4-1.5
		c-1.6,0-3.2,0.7-3.2,5.3c0,3.6,1,5.6,3.4,5.6c1.5,0,2-0.9,2.3-1.5h0V154.8z M55.1,154.8h2.1v-7c0-1.4,0.8-2,1.7-2
		c1.1,0,1.5,0.5,1.5,1.9v7.2h2.1v-7.9c0-2.1-1-2.8-2.6-2.8c-1.2,0-2.2,0.6-2.7,1.5h0v-1.2h-2V154.8z M51.1,154.8h2v-10.4H51v7.3
		c0,1.2-0.8,1.8-1.7,1.8c-0.9,0-1.4-0.4-1.4-1.6v-7.5h-2.1v7.3c0,2.7,1,3.4,2.6,3.4c1.2,0,2.2-0.6,2.7-1.5h0.1V154.8z M36.9,154.8
		h2.2v-6.3H44v-1.9h-4.9v-3.8h5.2v-1.9h-7.4V154.8z"/>
	<path fill-rule="evenodd" clip-rule="evenodd" fill="#008728" d="M245.9,167.3v-0.5c0-1.3-0.6-2.9-3.3-2.9c-2.2,0-3.6,0.9-3.6,2.9
		c0,1.7,0.7,2.5,2.2,3l1.7,0.6c0.7,0.2,1.1,0.8,1.1,1.5c0,1-0.6,1.5-1.7,1.5c-1.2,0-1.6-0.7-1.6-1.9v-0.3H239v0.4
		c0,2,0.8,3.2,3.4,3.2c2.1,0,3.8-0.9,3.8-3.2c0-1.7-0.7-2.5-2.3-3l-1.3-0.5c-1.1-0.4-1.5-0.7-1.5-1.5c0-1,0.7-1.4,1.5-1.4
		c1.1,0,1.4,0.8,1.4,1.6v0.3H245.9z M232.1,169.5c0-2.3,0.3-3.9,1.8-3.9c1.5,0,1.8,1.6,1.8,3.9c0,2.7-0.3,3.9-1.8,3.9
		C232.4,173.4,232.1,172.1,232.1,169.5z M230,169.5c0,3.2,1,5.5,3.9,5.5c2.9,0,3.9-2.2,3.9-5.5c0-3.2-0.9-5.5-3.9-5.5
		C230.9,164,230,166.2,230,169.5z M226.9,170.9c0,1.6-0.4,2.5-1.6,2.5c-1.5,0-1.8-1.6-1.8-3.9c0-2.3,0.3-3.9,1.8-3.9
		c1.2,0,1.5,1.2,1.5,2.2h2.1c0-1.3-0.5-3.8-3.6-3.8c-3,0-3.9,2.2-3.9,5.5c0,3.2,0.9,5.5,3.9,5.5c2.6,0,3.4-1.6,3.6-4.1H226.9z
		 M217.6,162.8h2.1v-2.1h-2.1V162.8z M217.6,174.7h2.1v-10.4h-2.1V174.7z M211.1,165.8h1.4v6.5c0,2.1,0.7,2.5,2.1,2.5
		c0.7,0,1.2-0.1,1.7-0.2v-1.5c-0.2,0-0.4,0.1-0.8,0.1c-0.7,0-1-0.3-1-1.1v-6.2h1.7v-1.6h-1.7v-3h-2.1v3h-1.4V165.8z M207.8,162.9
		h1.4l2.1-2.8H209L207.8,162.9z M207.9,174.7h2.1v-10.4h-2.1V174.7z M203.5,174.7h2.1v-13.9h-2.1V174.7z M196.1,169.5
		c0-2.3,0.3-3.9,1.8-3.9c1.5,0,1.8,1.6,1.8,3.9c0,2.7-0.3,3.9-1.8,3.9C196.4,173.4,196.1,172.1,196.1,169.5z M194,169.5
		c0,3.2,1,5.5,3.9,5.5c2.9,0,3.9-2.2,3.9-5.5c0-3.2-0.9-5.5-3.9-5.5C194.9,164,194,166.2,194,169.5z M184.9,174.7h2.2V169h1.9
		c2.6,0,4.1-1.6,4.1-4.1c0-2.4-1.2-4-3.8-4h-4.4V174.7z M187.1,162.5h1.4c1.8,0,2.4,0.9,2.4,2.4c0,1.7-1,2.4-2.2,2.4h-1.6V162.5z
		 M178.3,167.3v-0.5c0-1.3-0.6-2.9-3.3-2.9c-2.2,0-3.6,0.9-3.6,2.9c0,1.7,0.7,2.5,2.2,3l1.7,0.6c0.7,0.2,1.1,0.8,1.1,1.5
		c0,1-0.6,1.5-1.7,1.5c-1.2,0-1.6-0.7-1.6-1.9v-0.3h-1.9v0.4c0,2,0.8,3.2,3.4,3.2c2.1,0,3.8-0.9,3.8-3.2c0-1.7-0.7-2.5-2.3-3
		l-1.3-0.5c-1.1-0.4-1.5-0.7-1.5-1.5c0-1,0.7-1.4,1.5-1.4c1.1,0,1.4,0.8,1.4,1.6v0.3H178.3z M164.5,169.5c0-2.3,0.3-3.9,1.8-3.9
		c1.5,0,1.8,1.6,1.8,3.9c0,2.7-0.3,3.9-1.8,3.9C164.7,173.4,164.5,172.1,164.5,169.5z M162.4,169.5c0,3.2,1,5.5,3.9,5.5
		c2.9,0,3.9-2.2,3.9-5.5c0-3.2-0.9-5.5-3.9-5.5C163.2,164,162.4,166.2,162.4,169.5z M161,167.3v-0.5c0-1.3-0.6-2.9-3.3-2.9
		c-2.1,0-3.6,0.9-3.6,2.9c0,1.7,0.7,2.5,2.2,3l1.7,0.6c0.7,0.2,1.2,0.8,1.2,1.5c0,1-0.6,1.5-1.7,1.5c-1.2,0-1.6-0.7-1.6-1.9v-0.3
		H154v0.4c0,2,0.8,3.2,3.4,3.2c2.1,0,3.8-0.9,3.8-3.2c0-1.7-0.7-2.5-2.3-3l-1.3-0.5c-1.1-0.4-1.5-0.7-1.5-1.5c0-1,0.7-1.4,1.5-1.4
		c1.1,0,1.4,0.8,1.4,1.6v0.3H161z M147.3,168.3v-0.2c0-1.4,0.4-2.7,1.8-2.7c1.2,0,1.6,1,1.6,2.3v0.6H147.3z M152.8,169.8v-1.1
		c0-2.9-0.8-4.7-3.7-4.7c-3.3,0-3.9,2.9-3.9,5.6c0,4.8,2.1,5.3,3.8,5.3c2.3,0,3.7-1.4,3.7-3.8h-2c0,0.6-0.2,2.3-1.7,2.3
		c-1.6,0-1.8-1.8-1.8-3.2v-0.6H152.8z M139.5,174.7h2.1v-6.2c0-1.9,1.2-2.4,2.1-2.4c0.3,0,0.7,0.1,0.9,0.1v-2.1
		c-0.1,0-0.3-0.1-0.5-0.1c-1.2,0-2,0.7-2.4,1.9h0v-1.6h-2.1V174.7z M129.9,174.7h2.2V169h2c2.6,0,4.1-1.6,4.1-4.1c0-2.4-1.2-4-3.8-4
		h-4.4V174.7z M132.1,162.5h1.4c1.8,0,2.4,0.9,2.4,2.4c0,1.7-1,2.4-2.2,2.4h-1.6V162.5z M123.3,167.3v-0.5c0-1.3-0.6-2.9-3.3-2.9
		c-2.2,0-3.6,0.9-3.6,2.9c0,1.7,0.7,2.5,2.2,3l1.7,0.6c0.7,0.2,1.2,0.8,1.2,1.5c0,1-0.6,1.5-1.7,1.5c-1.2,0-1.6-0.7-1.6-1.9v-0.3
		h-1.9v0.4c0,2,0.8,3.2,3.4,3.2c2.1,0,3.8-0.9,3.8-3.2c0-1.7-0.7-2.5-2.3-3l-1.3-0.5c-1.1-0.4-1.5-0.7-1.5-1.5c0-1,0.7-1.4,1.5-1.4
		c1.1,0,1.4,0.8,1.4,1.6v0.3H123.3z M109.5,169.5c0-2.3,0.3-3.9,1.8-3.9c1.5,0,1.8,1.6,1.8,3.9c0,2.7-0.3,3.9-1.8,3.9
		C109.8,173.4,109.5,172.1,109.5,169.5z M107.4,169.5c0,3.2,1,5.5,3.9,5.5c2.9,0,3.9-2.2,3.9-5.5c0-3.2-0.9-5.5-3.9-5.5
		C108.3,164,107.4,166.2,107.4,169.5z M103.6,174.7h2.1v-13.9h-2.1V174.7z M89.5,174.7h2.1v-7c0-1.4,0.8-2,1.7-2
		c1,0,1.5,0.5,1.5,1.9v7.2h2.1v-7.9c0-2.1-1-2.8-2.6-2.8c-1.2,0-2.2,0.6-2.7,1.5h-0.1v-1.2h-2V174.7z M82.2,169.5
		c0-2.3,0.3-3.9,1.8-3.9c1.5,0,1.8,1.6,1.8,3.9c0,2.7-0.3,3.9-1.8,3.9C82.4,173.4,82.2,172.1,82.2,169.5z M80.1,169.5
		c0,3.2,1,5.5,3.9,5.5c2.9,0,3.9-2.2,3.9-5.5c0-3.2-0.9-5.5-3.9-5.5C80.9,164,80.1,166.2,80.1,169.5z M76.9,170.9
		c0,1.6-0.4,2.5-1.6,2.5c-1.5,0-1.8-1.6-1.8-3.9c0-2.3,0.3-3.9,1.8-3.9c1.2,0,1.5,1.2,1.5,2.2h2.1c0-1.3-0.5-3.8-3.6-3.8
		c-3,0-3.9,2.2-3.9,5.5c0,3.2,0.9,5.5,3.9,5.5c2.6,0,3.4-1.6,3.6-4.1H76.9z"/>
	<path fill="#008728" d="M72.3,108.2C59.4,107.7,49,96.6,49,83.6S59.4,59.5,72.3,59h12.2v-16H72.8C50.6,43.1,33,61.5,33,83.6
		s17.8,40.5,39.8,40.5h11.7v-16H72.3z"/>
	<path fill="#008728" d="M194.8,66.3c0-12.8-10.4-23.2-23.3-23.2c-0.2,0-0.3,0-0.5,0v0h-30V59h30c4,0.1,7.2,3.3,7.2,7.3
		s-3.2,7.2-7.2,7.3h-30v15.9v32.4h16V89.5h14.5C184.4,89.5,194.8,79.1,194.8,66.3z"/>
	<path fill="#008728" d="M259.1,66.2c0-12.8-10.4-23.2-23.3-23.2c-0.2,0-0.3,0-0.5,0v0h-30v15.9h30c4,0.1,7.2,3.3,7.2,7.3
		s-3.2,7.2-7.2,7.3h-30v15.9v28.4h16V89.4h14.5C248.7,89.4,259.1,79,259.1,66.2z"/>
	<rect x="141" y="120.9" fill="#008728" width="141" height="3.2"/>
	<path fill="#008728" d="M127.5,59h2.9v-16h-7.4C103.5,43.1,95,52,95,66.4c0,7.6,4.6,12.8,9.1,17.9c4.5,5.1,10.4,10.9,10.4,15.7
		l0,0.1c0,0.1,0,0.2,0,0.2c0,4-3.1,7.3-7,7.7l0,0.1h-0.8H95v16h8.7v0c10.2,0,14.9-2.8,20.3-7.9c4.3-4.2,6.5-10.2,6.5-17.1
		c0-8.6-5.2-12.8-10.1-19c-5.1-6.5-7.7-9.3-8.8-11.6c-0.1-0.1-0.1-0.2-0.2-0.3c-0.3-0.8-0.5-1.6-0.5-2.4v0v0c0-0.4,0-0.7,0.1-1
		c0.5-3.2,3.2-5.6,6.6-5.6L127.5,59L127.5,59z"/>
</g>
</svg>
